<?xml version="1.0" encoding="UTF-8"?>
<svg width="70px" height="58px" viewBox="0 0 70 58" version="1.1" xmlns="http://www.w3.org/2000/svg" xmlns:xlink="http://www.w3.org/1999/xlink">
    <title>本月 主题</title>
    <g id="20240509" stroke="none" stroke-width="1" fill="none" fill-rule="evenodd">
        <g id="计划_月视图" transform="translate(-40, -1351)">
            <g id="编组-11" transform="translate(20, 1330)">
                <g id="本月-主题" transform="translate(20, 21)">
                    <path d="M25.7855626,0 L25.1167728,4.69570761 L36.3375796,4.69570761 L35.8174098,8.20824479 L24.633758,8.20824479 L23.1475584,18.7088823 L26.1571125,18.7088823 L25.6740977,22.2214195 L22.6645435,22.2214195 L22.0700637,26.5104122 L15.0106157,26.5104122 L15.6050955,22.2214195 L12.5955414,22.2214195 L13.0785563,18.7088823 L16.1252654,18.7088823 L17.57431,8.20824479 L6.16772824,8.20824479 L6.68789809,4.69570761 L18.0944798,4.69570761 L18.5403397,1.47896303 L17.462845,0 L25.7855626,0 Z M32.3991507,9.35444114 L34.2940552,24.6247344 L27.2346072,24.6247344 L25.3397028,9.35444114 L32.3991507,9.35444114 Z M16.4225053,9.35444114 L10.477707,24.5877603 L3.41825902,24.5877603 L9.36305732,9.35444114 L16.4225053,9.35444114 Z" id="形状" fill="#01B26A" fill-rule="nonzero"></path>
                    <path d="M42.9140127,1.99660008 L41.7622081,0.665533362 L70,0.665533362 L66.6932059,24.1440714 C66.594126,24.8589035 66.2659236,25.4443264 65.7085987,25.90034 C65.1512739,26.3563536 64.5258316,26.5843604 63.8322718,26.5843604 L56.4755839,26.5843604 L59.7823779,23.1457714 L60.4511677,18.2282193 L46.8152866,18.2282193 L45.1804671,26.5843604 L38.1210191,26.5843604 L42.9140127,1.99660008 Z M47.4840764,14.7156821 L60.9713376,14.7156821 L61.4543524,11.2031449 L48.1900212,11.2031449 L47.4840764,14.7156821 Z M48.858811,7.69060773 L61.9373673,7.69060773 L62.4575372,4.17807055 L49.5647558,4.17807055 L48.858811,7.69060773 Z" id="形状" fill="#01B26A" fill-rule="nonzero"></path>
                    <polygon id="路径" fill="#01B26A" fill-rule="nonzero" points="14.6390658 34.1147471 14.7505308 33.3382915 15.9147205 31.1814705 21.9957537 32.0072248 21.6985138 34.1147471 32.2876858 34.1147471 31.7675159 37.9970251 21.141189 37.9970251 20.2866242 43.9498513 30.2070064 43.9498513 29.6496815 47.8321292 19.7664544 47.8321292 18.8747346 54.1177221 30.1698514 54.1177221 29.6496815 58 0 58 0.520169851 54.1177221 11.8152866 54.1177221 12.7070064 47.8321292 2.82377919 47.8321292 3.38110403 43.9498513 13.2271762 43.9498513 14.081741 37.9970251 3.52972399 37.9970251 4.04989384 34.1147471"></polygon>
                    <path d="M50.0849257,44.6523587 L49.5647558,48.1648959 L47.5212314,48.1648959 L47.3354565,49.6068848 L50.1220807,49.6068848 L49.6390658,53.0824479 L46.8524416,53.0824479 L46.6295117,54.4874628 L64.9097665,54.4874628 L64.4267516,58 L41.1305732,58 L39.3471338,55.6706332 L38.6783439,57.9630259 L33.3651805,57.9630259 L35.7430998,50.0875478 L35.037155,48.9043774 L41.3535032,48.9043774 L40.7590234,50.9749256 L40.8333333,50.9749256 L41.6878981,52.121122 L42.2452229,48.1648959 L35.4458599,48.1648959 L35.9660297,44.6523587 L37.9101805,44.6518212 L37.6761347,45.0335131 L38.3271805,44.6518212 L50.0849257,44.6523587 Z M61.0456476,41.8423289 L60.1539278,48.1648959 L64.3152866,53.7849554 L58.6677282,53.7849554 L57.0700637,51.1967701 L54.4320594,53.7849554 L49.4904459,53.7849554 L55.2123142,48.1648959 L56.104034,41.8423289 L61.0456476,41.8423289 Z M67.2876858,32.7097323 L66.8046709,36.2222694 L62.7176221,36.2222694 L62.0116773,37.9970251 L66.1358811,37.9970251 L64.6125265,48.8674033 L61.4915074,48.8674033 L60.8598726,48.1648959 L61.9002123,40.8070548 L55.5467091,40.8070548 L54.5063694,48.1648959 L53.7261146,48.8674033 L50.5679406,48.8674033 L52.0912951,37.9970251 L55.6581741,37.9970251 L56.3641189,36.2222694 L51.9798301,36.2222694 L52.462845,32.7097323 L67.2876858,32.7097323 Z M38.5131805,36.6008212 L41.9849243,38.0338754 L38.5471805,43.6168212 L37.5265393,43.6170846 L38.5131805,36.6008212 Z M51.3621805,35.5288212 L50.2335456,43.6170846 L40.0991805,43.6168212 L44.9741805,40.7698212 L45.329087,40.7700807 L45.3581805,40.5458212 L49.1430592,43.1209815 L47.5935231,37.9923862 L51.3621805,35.5288212 Z M51.4151805,35.1498212 L47.3444001,35.1507179 L47.0081805,32.7088212 L51.7569002,32.7097323 L51.4151805,35.1498212 Z M45.1211805,32.7088212 L43.5946168,35.1425049 L38.7301805,35.0578212 L38.8641189,34.1147471 L37.6380042,32.7097323 L45.1211805,32.7088212 Z" id="形状结合" fill="#01B26A" fill-rule="nonzero"></path>
                    <polygon id="星形" fill="#FF9018" points="45.7006872 39.2399228 40.5857541 42.2736932 43.5745459 37.3438164 39.4462137 35.6136929 44.4002123 35.7005242 46.431392 32.4139397 46.8772116 35.7005242 49.3542109 35.7005242 46.8772116 37.3438164 47.8928014 40.756808"></polygon>
                    <polygon id="路径-20" fill="#FF9018" points="14.6762208 33.9545261 21.7975938 33.9545261 22.4168436 29.9490013 15.2954706 29.9490013"></polygon>
                </g>
            </g>
        </g>
    </g>
</svg>