<?xml version="1.0" encoding="UTF-8"?>
<svg width="70px" height="56px" viewBox="0 0 70 56" version="1.1" xmlns="http://www.w3.org/2000/svg" xmlns:xlink="http://www.w3.org/1999/xlink">
    <title>本月 主题</title>
    <g id="20240509" stroke="none" stroke-width="1" fill="none" fill-rule="evenodd">
        <g id="计划_月视图" transform="translate(-41, -1292)">
            <g id="编组-11" transform="translate(20, 1270)">
                <g id="本月-主题" transform="translate(21, 22)">
                    <path d="M24.9341317,0 L24.2874251,4.53378666 L35.1377246,4.53378666 L34.6347305,7.92520187 L23.8203593,7.92520187 L22.3832335,18.0637484 L25.2934132,18.0637484 L24.8263473,21.4551636 L21.9161677,21.4551636 L21.3413174,25.5962601 L14.5149701,25.5962601 L15.0898204,21.4551636 L12.1796407,21.4551636 L12.6467066,18.0637484 L15.5928144,18.0637484 L16.994012,7.92520187 L5.96407186,7.92520187 L6.46706587,4.53378666 L17.497006,4.53378666 L17.9281437,1.4279643 L16.8862275,0 L24.9341317,0 Z M31.3293413,9.0318742 L33.1616766,23.7756056 L26.3353293,23.7756056 L24.502994,9.0318742 L31.3293413,9.0318742 Z M15.8802395,9.0318742 L10.1317365,23.7399065 L3.30538922,23.7399065 L9.05389222,9.0318742 L15.8802395,9.0318742 Z" id="形状" fill="#01B26A" fill-rule="nonzero"></path>
                    <path d="M70,0.356991075 L66.8023952,23.0259244 C66.7065868,23.7161071 66.3952096,24.281343 65.8682635,24.721632 C65.3413174,25.161921 64.7305389,25.3820654 64.0359281,25.3820654 L57.6407186,25.3820654 L60.8023952,22.0977476 L63.3892216,3.74840629 L47.508982,3.74840629 L43.2694611,25.3820654 L37.1257485,25.3820654 L41.760479,1.64215895 L40.6467066,0.356991075 L70,0.356991075 Z M60.4790419,14.600935 L59.3652695,22.4190395 L45.7125749,22.4190395 L46.8263473,14.600935 L60.4790419,14.600935 Z M51.1736527,10.5312367 L51.3892216,9.17467063 L47.6167665,9.17467063 L47.9760479,6.46153846 L51.748503,6.46153846 L51.9640719,5.10497238 L58.1077844,5.10497238 L57.8922156,6.46153846 L61.6287425,6.46153846 L61.2694611,9.17467063 L57.5329341,9.17467063 L57.3173653,10.5312367 L61.0538922,10.5312367 L60.6946108,13.2443689 L47.0419162,13.2443689 L47.4011976,10.5312367 L51.1736527,10.5312367 Z M54.9820359,19.7059074 L55.3413174,17.3140671 L51.245509,17.3140671 L50.8862275,19.7059074 L54.9820359,19.7059074 Z" id="形状" fill="#01B26A" fill-rule="nonzero"></path>
                    <polygon id="路径" fill="#01B26A" fill-rule="nonzero" points="14.1556886 32.9383765 14.2634731 32.1886953 15.3892216 30.1062473 21.2694611 30.9035274 20.9820359 32.9383765 31.2215569 32.9383765 30.7185629 36.6867828 20.4431138 36.6867828 19.6167665 42.4343391 29.2095808 42.4343391 28.6706587 46.1827454 19.1137725 46.1827454 18.251497 52.2515937 29.1736527 52.2515937 28.6706587 56 0 56 0.502994012 52.2515937 11.4251497 52.2515937 12.2874251 46.1827454 2.73053892 46.1827454 3.26946108 42.4343391 12.7904192 42.4343391 13.6167665 36.6867828 3.41317365 36.6867828 3.91616766 32.9383765"></polygon>
                    <path d="M48.4311377,43.1126222 L47.9281437,46.5040374 L45.9520958,46.5040374 L45.7724551,47.8963026 L48.4670659,47.8963026 L48,51.2520187 L45.3053892,51.2520187 L45.0898204,52.6085848 L62.7664671,52.6085848 L62.2994012,56 L39.7724551,56 L38.0479042,53.7509562 L37.4011976,55.9643009 L32.2634731,55.9643009 L34.5628743,48.360391 L33.8802395,47.2180195 L39.988024,47.2180195 L39.4131737,49.2171696 L39.4850299,49.2171696 L40.3113772,50.3238419 L40.8502994,46.5040374 L34.2754491,46.5040374 L34.7784431,43.1126222 L36.6584731,43.1119309 L36.432081,43.4806334 L37.0624731,43.1119309 L48.4311377,43.1126222 Z M59.0299401,40.39949 L58.1676647,46.5040374 L62.1916168,51.9303017 L56.7305389,51.9303017 L55.1856287,49.4313642 L52.6347305,51.9303017 L47.8562874,51.9303017 L53.3892216,46.5040374 L54.251497,40.39949 L59.0299401,40.39949 Z M65.0658683,31.5818105 L64.5988024,34.9732257 L60.6467066,34.9732257 L59.9640719,36.6867828 L63.9520958,36.6867828 L62.4790419,47.1823204 L59.4610778,47.1823204 L58.8502994,46.5040374 L59.8562874,39.399915 L53.7125749,39.399915 L52.7065868,46.5040374 L51.9520958,47.1823204 L48.8982036,47.1823204 L50.3712575,36.6867828 L53.8203593,36.6867828 L54.502994,34.9732257 L50.2634731,34.9732257 L50.7305389,31.5818105 L65.0658683,31.5818105 Z M37.2414731,35.3389309 L40.5985958,36.7223625 L37.2744731,42.1129309 L36.2874251,42.1130472 L37.2414731,35.3389309 Z M49.6664731,34.3039309 L48.5748503,42.1130472 L38.7754731,42.1129309 L43.4884731,39.3639309 L43.8323353,39.3642159 L43.8604731,39.1469309 L47.5203713,41.6340511 L46.0220004,36.6823039 L49.6664731,34.3039309 Z M49.7174731,33.9379309 L45.7811034,33.9386241 L45.4554731,31.5809309 L50.0479042,31.5818105 L49.7174731,33.9379309 Z M43.6314731,31.5809309 L42.1551367,33.9306944 L37.4524731,33.8489309 L37.5808383,32.9383765 L36.3952096,31.5818105 L43.6314731,31.5809309 Z" id="形状结合" fill="#01B26A" fill-rule="nonzero"></path>
                    <polygon id="星形" fill="#FF9018" points="44.1916654 37.8868221 39.2456257 40.8159796 42.1357285 36.0560986 38.1437126 34.3856345 42.9341317 34.4694716 44.8982425 31.2962176 45.3293413 34.4694716 47.7245509 34.4694716 45.3293413 36.0560986 46.3113967 39.3514008"></polygon>
                    <polygon id="路径-20" fill="#FF9018" points="14.1916168 32.7836804 21.0778443 32.7836804 21.6766467 28.9162771 14.7904192 28.9162771"></polygon>
                </g>
            </g>
        </g>
    </g>
</svg>